<mxfile host="Electron" agent="Mozilla/5.0 (Windows NT 10.0; Win64; x64) AppleWebKit/537.36 (KHTML, like Gecko) draw.io/26.0.16 Chrome/132.0.6834.196 Electron/34.2.0 Safari/537.36" version="26.0.16">
  <diagram id="R2lEEEUBdFMjLlhIrx00" name="Page-1">
    <mxGraphModel dx="1684" dy="1971" grid="1" gridSize="10" guides="1" tooltips="1" connect="1" arrows="1" fold="1" page="1" pageScale="1" pageWidth="850" pageHeight="1100" math="0" shadow="0" extFonts="Permanent Marker^https://fonts.googleapis.com/css?family=Permanent+Marker">
      <root>
        <mxCell id="0" />
        <mxCell id="1" parent="0" />
        <mxCell id="ysc81xDm8aQt-sF4rHXD-19" value="Member" style="rounded=1;arcSize=10;whiteSpace=wrap;html=1;align=center;labelBackgroundColor=none;fillColor=#A8DADC;strokeColor=#457B9D;fontColor=#1D3557;" parent="1" vertex="1">
          <mxGeometry x="65" y="40" width="100" height="40" as="geometry" />
        </mxCell>
        <mxCell id="ysc81xDm8aQt-sF4rHXD-20" value="Instructor" style="rounded=1;arcSize=10;whiteSpace=wrap;html=1;align=center;labelBackgroundColor=none;fillColor=#A8DADC;strokeColor=#457B9D;fontColor=#1D3557;" parent="1" vertex="1">
          <mxGeometry x="40" y="320" width="100" height="40" as="geometry" />
        </mxCell>
        <mxCell id="nUIHT7rJCE-27V1YkCyQ-2" value="Membership" style="rounded=1;arcSize=10;whiteSpace=wrap;html=1;align=center;strokeColor=#457B9D;fontColor=#1D3557;fillColor=#A8DADC;labelBackgroundColor=none;" parent="1" vertex="1">
          <mxGeometry x="727" y="31" width="100" height="40" as="geometry" />
        </mxCell>
        <mxCell id="KXVJTQez2bZqWLIUOeJD-2" value="" style="edgeStyle=orthogonalEdgeStyle;rounded=0;orthogonalLoop=1;jettySize=auto;html=1;strokeColor=#457B9D;fontColor=#1D3557;fillColor=#A8DADC;endArrow=none;endFill=0;startFill=0;curved=1;" edge="1" parent="1" source="nUIHT7rJCE-27V1YkCyQ-3" target="KXVJTQez2bZqWLIUOeJD-1">
          <mxGeometry relative="1" as="geometry" />
        </mxCell>
        <mxCell id="KXVJTQez2bZqWLIUOeJD-4" value="" style="edgeStyle=orthogonalEdgeStyle;rounded=0;orthogonalLoop=1;jettySize=auto;html=1;strokeColor=#457B9D;fontColor=#1D3557;fillColor=#A8DADC;endArrow=none;endFill=0;startFill=0;curved=1;" edge="1" parent="1" source="nUIHT7rJCE-27V1YkCyQ-3" target="KXVJTQez2bZqWLIUOeJD-3">
          <mxGeometry relative="1" as="geometry" />
        </mxCell>
        <mxCell id="KXVJTQez2bZqWLIUOeJD-6" style="edgeStyle=orthogonalEdgeStyle;rounded=0;orthogonalLoop=1;jettySize=auto;html=1;exitX=0.5;exitY=0;exitDx=0;exitDy=0;entryX=0.5;entryY=1;entryDx=0;entryDy=0;strokeColor=#457B9D;fontColor=#1D3557;fillColor=#A8DADC;endArrow=none;endFill=0;startFill=0;curved=1;" edge="1" parent="1" source="nUIHT7rJCE-27V1YkCyQ-3" target="KXVJTQez2bZqWLIUOeJD-5">
          <mxGeometry relative="1" as="geometry" />
        </mxCell>
        <mxCell id="nUIHT7rJCE-27V1YkCyQ-3" value="Belt" style="rounded=1;arcSize=10;whiteSpace=wrap;html=1;align=center;strokeColor=#457B9D;fontColor=#1D3557;fillColor=#A8DADC;labelBackgroundColor=none;" parent="1" vertex="1">
          <mxGeometry x="-386" y="40" width="100" height="40" as="geometry" />
        </mxCell>
        <mxCell id="KXVJTQez2bZqWLIUOeJD-13" style="edgeStyle=orthogonalEdgeStyle;rounded=0;orthogonalLoop=1;jettySize=auto;html=1;exitX=0.25;exitY=1;exitDx=0;exitDy=0;strokeColor=#457B9D;fontColor=#1D3557;fillColor=#A8DADC;curved=1;" edge="1" parent="1" source="nUIHT7rJCE-27V1YkCyQ-4" target="KXVJTQez2bZqWLIUOeJD-12">
          <mxGeometry relative="1" as="geometry" />
        </mxCell>
        <mxCell id="nUIHT7rJCE-27V1YkCyQ-4" value="Rank Testing" style="rounded=1;arcSize=10;whiteSpace=wrap;html=1;align=center;strokeColor=#457B9D;fontColor=#1D3557;fillColor=#A8DADC;labelBackgroundColor=none;" parent="1" vertex="1">
          <mxGeometry x="-386" y="320" width="100" height="40" as="geometry" />
        </mxCell>
        <mxCell id="nUIHT7rJCE-27V1YkCyQ-5" value="Payment" style="rounded=1;arcSize=10;whiteSpace=wrap;html=1;align=center;strokeColor=#457B9D;fontColor=#1D3557;fillColor=#A8DADC;labelBackgroundColor=none;" parent="1" vertex="1">
          <mxGeometry x="65" y="-160" width="100" height="40" as="geometry" />
        </mxCell>
        <mxCell id="gwWRFYkYZBfwvR-6La1C-45" value="" style="edgeStyle=orthogonalEdgeStyle;orthogonalLoop=1;jettySize=auto;html=1;strokeColor=#457B9D;fontColor=default;fillColor=#A8DADC;endArrow=ERmandOne;endFill=0;labelBackgroundColor=none;startArrow=ERzeroToMany;startFill=0;" parent="1" source="nUIHT7rJCE-27V1YkCyQ-6" target="nUIHT7rJCE-27V1YkCyQ-2" edge="1">
          <mxGeometry relative="1" as="geometry" />
        </mxCell>
        <mxCell id="gwWRFYkYZBfwvR-6La1C-46" value="" style="edgeStyle=orthogonalEdgeStyle;orthogonalLoop=1;jettySize=auto;html=1;strokeColor=#457B9D;fontColor=default;fillColor=#A8DADC;entryX=1;entryY=0.25;entryDx=0;entryDy=0;endArrow=ERmandOne;endFill=0;labelBackgroundColor=none;startArrow=ERoneToMany;startFill=0;" parent="1" source="nUIHT7rJCE-27V1YkCyQ-6" target="ysc81xDm8aQt-sF4rHXD-19" edge="1">
          <mxGeometry relative="1" as="geometry">
            <mxPoint x="200" y="60" as="targetPoint" />
          </mxGeometry>
        </mxCell>
        <mxCell id="nUIHT7rJCE-27V1YkCyQ-6" value="subscripe" style="shape=associativeEntity;whiteSpace=wrap;html=1;align=center;strokeColor=#457B9D;fontColor=#1D3557;fillColor=#A8DADC;" parent="1" vertex="1">
          <mxGeometry x="318" y="-134" width="120" height="60" as="geometry" />
        </mxCell>
        <mxCell id="gwWRFYkYZBfwvR-6La1C-38" value="" style="edgeStyle=orthogonalEdgeStyle;orthogonalLoop=1;jettySize=auto;html=1;strokeColor=#457B9D;fontColor=default;fillColor=#A8DADC;endArrow=ERzeroToMany;endFill=0;labelBackgroundColor=none;" parent="1" source="nUIHT7rJCE-27V1YkCyQ-9" target="ysc81xDm8aQt-sF4rHXD-19" edge="1">
          <mxGeometry relative="1" as="geometry" />
        </mxCell>
        <mxCell id="gwWRFYkYZBfwvR-6La1C-40" value="" style="edgeStyle=orthogonalEdgeStyle;orthogonalLoop=1;jettySize=auto;html=1;strokeColor=#457B9D;fontColor=default;fillColor=#A8DADC;endArrow=ERmandOne;endFill=0;labelBackgroundColor=none;" parent="1" source="nUIHT7rJCE-27V1YkCyQ-9" target="nUIHT7rJCE-27V1YkCyQ-3" edge="1">
          <mxGeometry relative="1" as="geometry" />
        </mxCell>
        <mxCell id="nUIHT7rJCE-27V1YkCyQ-9" value="Own" style="shape=rhombus;perimeter=rhombusPerimeter;whiteSpace=wrap;html=1;align=center;strokeColor=#457B9D;fontColor=#1D3557;fillColor=#A8DADC;labelBackgroundColor=none;" parent="1" vertex="1">
          <mxGeometry x="-140" y="30" width="120" height="60" as="geometry" />
        </mxCell>
        <mxCell id="gwWRFYkYZBfwvR-6La1C-30" value="" style="edgeStyle=orthogonalEdgeStyle;orthogonalLoop=1;jettySize=auto;html=1;strokeColor=#457B9D;fontColor=default;fillColor=#A8DADC;entryX=0.25;entryY=1;entryDx=0;entryDy=0;endArrow=ERoneToMany;endFill=0;labelBackgroundColor=none;" parent="1" source="nUIHT7rJCE-27V1YkCyQ-12" target="ysc81xDm8aQt-sF4rHXD-19" edge="1">
          <mxGeometry relative="1" as="geometry">
            <mxPoint x="68" y="80" as="targetPoint" />
          </mxGeometry>
        </mxCell>
        <mxCell id="gwWRFYkYZBfwvR-6La1C-31" value="" style="edgeStyle=orthogonalEdgeStyle;orthogonalLoop=1;jettySize=auto;html=1;strokeColor=#457B9D;fontColor=default;fillColor=#A8DADC;endArrow=ERoneToMany;endFill=0;labelBackgroundColor=none;" parent="1" source="nUIHT7rJCE-27V1YkCyQ-12" target="ysc81xDm8aQt-sF4rHXD-20" edge="1">
          <mxGeometry relative="1" as="geometry" />
        </mxCell>
        <mxCell id="nUIHT7rJCE-27V1YkCyQ-12" value="train" style="shape=rhombus;perimeter=rhombusPerimeter;whiteSpace=wrap;html=1;align=center;strokeColor=#457B9D;fontColor=#1D3557;fillColor=#A8DADC;rotation=0;labelBackgroundColor=none;" parent="1" vertex="1">
          <mxGeometry x="30" y="170" width="120" height="60" as="geometry" />
        </mxCell>
        <mxCell id="gwWRFYkYZBfwvR-6La1C-42" style="edgeStyle=orthogonalEdgeStyle;orthogonalLoop=1;jettySize=auto;html=1;exitX=0;exitY=0.5;exitDx=0;exitDy=0;entryX=0.84;entryY=0;entryDx=0;entryDy=0;strokeColor=#457B9D;fontColor=default;fillColor=#A8DADC;rounded=0;curved=1;entryPerimeter=0;endArrow=ERzeroToMany;endFill=0;labelBackgroundColor=none;" parent="1" source="nUIHT7rJCE-27V1YkCyQ-15" target="nUIHT7rJCE-27V1YkCyQ-4" edge="1">
          <mxGeometry relative="1" as="geometry" />
        </mxCell>
        <mxCell id="gwWRFYkYZBfwvR-6La1C-60" style="edgeStyle=orthogonalEdgeStyle;orthogonalLoop=1;jettySize=auto;html=1;exitX=1;exitY=0.5;exitDx=0;exitDy=0;strokeColor=#457B9D;fontColor=default;fillColor=#A8DADC;rounded=0;curved=1;entryX=0.076;entryY=1;entryDx=0;entryDy=0;entryPerimeter=0;endArrow=ERoneToMany;endFill=0;labelBackgroundColor=none;" parent="1" source="nUIHT7rJCE-27V1YkCyQ-15" target="ysc81xDm8aQt-sF4rHXD-19" edge="1">
          <mxGeometry relative="1" as="geometry">
            <mxPoint x="50" y="80" as="targetPoint" />
          </mxGeometry>
        </mxCell>
        <mxCell id="KXVJTQez2bZqWLIUOeJD-15" value="" style="edgeStyle=orthogonalEdgeStyle;rounded=0;orthogonalLoop=1;jettySize=auto;html=1;strokeColor=#457B9D;fontColor=#1D3557;fillColor=#A8DADC;curved=1;endArrow=none;startFill=0;" edge="1" parent="1" source="nUIHT7rJCE-27V1YkCyQ-15" target="KXVJTQez2bZqWLIUOeJD-14">
          <mxGeometry relative="1" as="geometry" />
        </mxCell>
        <mxCell id="KXVJTQez2bZqWLIUOeJD-17" style="edgeStyle=orthogonalEdgeStyle;rounded=0;orthogonalLoop=1;jettySize=auto;html=1;exitX=0.5;exitY=1;exitDx=0;exitDy=0;entryX=0.5;entryY=0;entryDx=0;entryDy=0;strokeColor=#457B9D;fontColor=#1D3557;fillColor=#A8DADC;curved=1;endArrow=none;startFill=0;" edge="1" parent="1" source="nUIHT7rJCE-27V1YkCyQ-15" target="KXVJTQez2bZqWLIUOeJD-16">
          <mxGeometry relative="1" as="geometry" />
        </mxCell>
        <mxCell id="nUIHT7rJCE-27V1YkCyQ-15" value="participate" style="shape=associativeEntity;whiteSpace=wrap;html=1;align=center;strokeColor=#457B9D;fontColor=#1D3557;fillColor=#A8DADC;" parent="1" vertex="1">
          <mxGeometry x="-187" y="134" width="120" height="60" as="geometry" />
        </mxCell>
        <mxCell id="gwWRFYkYZBfwvR-6La1C-36" value="" style="edgeStyle=orthogonalEdgeStyle;orthogonalLoop=1;jettySize=auto;html=1;strokeColor=#457B9D;fontColor=default;fillColor=#A8DADC;endArrow=ERmandOne;endFill=0;labelBackgroundColor=none;" parent="1" source="nUIHT7rJCE-27V1YkCyQ-20" target="ysc81xDm8aQt-sF4rHXD-20" edge="1">
          <mxGeometry relative="1" as="geometry" />
        </mxCell>
        <mxCell id="gwWRFYkYZBfwvR-6La1C-37" value="" style="edgeStyle=orthogonalEdgeStyle;orthogonalLoop=1;jettySize=auto;html=1;strokeColor=#457B9D;fontColor=default;fillColor=#A8DADC;endArrow=ERzeroToMany;endFill=0;labelBackgroundColor=none;" parent="1" source="nUIHT7rJCE-27V1YkCyQ-20" target="nUIHT7rJCE-27V1YkCyQ-4" edge="1">
          <mxGeometry relative="1" as="geometry" />
        </mxCell>
        <mxCell id="nUIHT7rJCE-27V1YkCyQ-20" value="conducted" style="shape=rhombus;perimeter=rhombusPerimeter;whiteSpace=wrap;html=1;align=center;strokeColor=#457B9D;fontColor=#1D3557;fillColor=#A8DADC;labelBackgroundColor=none;" parent="1" vertex="1">
          <mxGeometry x="-187" y="310" width="120" height="60" as="geometry" />
        </mxCell>
        <mxCell id="gwWRFYkYZBfwvR-6La1C-43" value="" style="edgeStyle=orthogonalEdgeStyle;orthogonalLoop=1;jettySize=auto;html=1;strokeColor=#457B9D;fontColor=default;fillColor=#A8DADC;endArrow=ERzeroToMany;endFill=0;labelBackgroundColor=none;" parent="1" source="nUIHT7rJCE-27V1YkCyQ-23" target="nUIHT7rJCE-27V1YkCyQ-4" edge="1">
          <mxGeometry relative="1" as="geometry" />
        </mxCell>
        <mxCell id="gwWRFYkYZBfwvR-6La1C-44" value="" style="edgeStyle=orthogonalEdgeStyle;orthogonalLoop=1;jettySize=auto;html=1;strokeColor=#457B9D;fontColor=default;fillColor=#A8DADC;endArrow=ERmandOne;endFill=0;labelBackgroundColor=none;" parent="1" source="nUIHT7rJCE-27V1YkCyQ-23" target="nUIHT7rJCE-27V1YkCyQ-3" edge="1">
          <mxGeometry relative="1" as="geometry" />
        </mxCell>
        <mxCell id="nUIHT7rJCE-27V1YkCyQ-23" value="Test" style="shape=rhombus;perimeter=rhombusPerimeter;whiteSpace=wrap;html=1;align=center;strokeColor=#457B9D;fontColor=#1D3557;fillColor=#A8DADC;labelBackgroundColor=none;" parent="1" vertex="1">
          <mxGeometry x="-420" y="170" width="120" height="60" as="geometry" />
        </mxCell>
        <mxCell id="gwWRFYkYZBfwvR-6La1C-48" value="" style="edgeStyle=orthogonalEdgeStyle;orthogonalLoop=1;jettySize=auto;html=1;strokeColor=#457B9D;fontColor=default;fillColor=#A8DADC;endArrow=ERoneToMany;endFill=0;labelBackgroundColor=none;" parent="1" source="gwWRFYkYZBfwvR-6La1C-47" target="nUIHT7rJCE-27V1YkCyQ-5" edge="1">
          <mxGeometry relative="1" as="geometry" />
        </mxCell>
        <mxCell id="gwWRFYkYZBfwvR-6La1C-49" value="" style="edgeStyle=orthogonalEdgeStyle;orthogonalLoop=1;jettySize=auto;html=1;strokeColor=#457B9D;fontColor=default;fillColor=#A8DADC;endArrow=ERmandOne;endFill=0;labelBackgroundColor=none;" parent="1" source="gwWRFYkYZBfwvR-6La1C-47" target="ysc81xDm8aQt-sF4rHXD-19" edge="1">
          <mxGeometry relative="1" as="geometry" />
        </mxCell>
        <mxCell id="gwWRFYkYZBfwvR-6La1C-47" value="Pay" style="shape=rhombus;perimeter=rhombusPerimeter;whiteSpace=wrap;html=1;align=center;strokeColor=#457B9D;fontColor=#1D3557;fillColor=#A8DADC;labelBackgroundColor=none;" parent="1" vertex="1">
          <mxGeometry x="55" y="-70" width="120" height="60" as="geometry" />
        </mxCell>
        <mxCell id="gwWRFYkYZBfwvR-6La1C-57" style="edgeStyle=orthogonalEdgeStyle;orthogonalLoop=1;jettySize=auto;html=1;exitX=1;exitY=0.5;exitDx=0;exitDy=0;entryX=0;entryY=0.5;entryDx=0;entryDy=0;strokeColor=#457B9D;fontColor=default;fillColor=#A8DADC;endArrow=ERmandOne;endFill=0;labelBackgroundColor=none;" parent="1" source="gwWRFYkYZBfwvR-6La1C-50" target="nUIHT7rJCE-27V1YkCyQ-5" edge="1">
          <mxGeometry relative="1" as="geometry" />
        </mxCell>
        <mxCell id="KXVJTQez2bZqWLIUOeJD-9" style="edgeStyle=orthogonalEdgeStyle;rounded=0;orthogonalLoop=1;jettySize=auto;html=1;exitX=0;exitY=0.5;exitDx=0;exitDy=0;entryX=0.25;entryY=0;entryDx=0;entryDy=0;strokeColor=#457B9D;fontColor=#1D3557;fillColor=#A8DADC;endArrow=ERzeroToOne;endFill=0;" edge="1" parent="1" source="gwWRFYkYZBfwvR-6La1C-50" target="nUIHT7rJCE-27V1YkCyQ-15">
          <mxGeometry relative="1" as="geometry" />
        </mxCell>
        <mxCell id="gwWRFYkYZBfwvR-6La1C-50" value="Belong" style="shape=rhombus;perimeter=rhombusPerimeter;whiteSpace=wrap;html=1;align=center;strokeColor=#457B9D;fontColor=#1D3557;fillColor=#A8DADC;labelBackgroundColor=none;" parent="1" vertex="1">
          <mxGeometry x="-110" y="-160" width="120" height="60" as="geometry" />
        </mxCell>
        <mxCell id="gwWRFYkYZBfwvR-6La1C-58" style="edgeStyle=orthogonalEdgeStyle;orthogonalLoop=1;jettySize=auto;html=1;exitX=0;exitY=0.5;exitDx=0;exitDy=0;entryX=1;entryY=0.5;entryDx=0;entryDy=0;strokeColor=#457B9D;fontColor=default;fillColor=#A8DADC;endArrow=ERmandOne;endFill=0;labelBackgroundColor=none;" parent="1" source="gwWRFYkYZBfwvR-6La1C-51" target="nUIHT7rJCE-27V1YkCyQ-5" edge="1">
          <mxGeometry relative="1" as="geometry" />
        </mxCell>
        <mxCell id="gwWRFYkYZBfwvR-6La1C-59" style="edgeStyle=orthogonalEdgeStyle;orthogonalLoop=1;jettySize=auto;html=1;exitX=1;exitY=0.5;exitDx=0;exitDy=0;strokeColor=#457B9D;fontColor=default;fillColor=#A8DADC;endArrow=ERzeroToOne;endFill=0;labelBackgroundColor=none;entryX=0;entryY=0;entryDx=0;entryDy=0;" parent="1" source="gwWRFYkYZBfwvR-6La1C-51" target="nUIHT7rJCE-27V1YkCyQ-6" edge="1">
          <mxGeometry relative="1" as="geometry">
            <mxPoint x="355" y="-158" as="targetPoint" />
          </mxGeometry>
        </mxCell>
        <mxCell id="gwWRFYkYZBfwvR-6La1C-51" value="Belong" style="shape=rhombus;perimeter=rhombusPerimeter;whiteSpace=wrap;html=1;align=center;strokeColor=#457B9D;fontColor=#1D3557;fillColor=#A8DADC;labelBackgroundColor=none;" parent="1" vertex="1">
          <mxGeometry x="285" y="-308" width="120" height="60" as="geometry" />
        </mxCell>
        <mxCell id="gwWRFYkYZBfwvR-6La1C-84" style="edgeStyle=orthogonalEdgeStyle;orthogonalLoop=1;jettySize=auto;html=1;exitX=0;exitY=0;exitDx=0;exitDy=0;entryX=0.5;entryY=1;entryDx=0;entryDy=0;strokeColor=#457B9D;fontColor=default;fillColor=#A8DADC;rounded=0;curved=1;endArrow=none;startFill=0;labelBackgroundColor=none;" parent="1" source="gwWRFYkYZBfwvR-6La1C-62" target="ysc81xDm8aQt-sF4rHXD-19" edge="1">
          <mxGeometry relative="1" as="geometry">
            <Array as="points">
              <mxPoint x="165" y="160" />
              <mxPoint x="115" y="160" />
            </Array>
          </mxGeometry>
        </mxCell>
        <mxCell id="gwWRFYkYZBfwvR-6La1C-62" value="MemberID" style="ellipse;whiteSpace=wrap;html=1;align=center;fontStyle=4;strokeColor=#457B9D;fontColor=#1D3557;fillColor=#A8DADC;labelBackgroundColor=none;" parent="1" vertex="1">
          <mxGeometry x="150" y="172" width="100" height="40" as="geometry" />
        </mxCell>
        <mxCell id="gwWRFYkYZBfwvR-6La1C-86" style="edgeStyle=orthogonalEdgeStyle;orthogonalLoop=1;jettySize=auto;html=1;exitX=0;exitY=0;exitDx=0;exitDy=0;entryX=0.5;entryY=1;entryDx=0;entryDy=0;strokeColor=#457B9D;fontColor=default;fillColor=#A8DADC;rounded=0;curved=1;endArrow=none;startFill=0;labelBackgroundColor=none;" parent="1" source="gwWRFYkYZBfwvR-6La1C-63" target="ysc81xDm8aQt-sF4rHXD-19" edge="1">
          <mxGeometry relative="1" as="geometry" />
        </mxCell>
        <mxCell id="gwWRFYkYZBfwvR-6La1C-63" value="Name" style="ellipse;whiteSpace=wrap;html=1;align=center;strokeColor=#457B9D;fontColor=#1D3557;fillColor=#A8DADC;labelBackgroundColor=none;" parent="1" vertex="1">
          <mxGeometry x="253" y="166" width="100" height="40" as="geometry" />
        </mxCell>
        <mxCell id="gwWRFYkYZBfwvR-6La1C-90" style="edgeStyle=orthogonalEdgeStyle;orthogonalLoop=1;jettySize=auto;html=1;exitX=0;exitY=0.5;exitDx=0;exitDy=0;entryX=0.5;entryY=1;entryDx=0;entryDy=0;strokeColor=#457B9D;fontColor=default;fillColor=#A8DADC;rounded=0;curved=1;endArrow=none;startFill=0;labelBackgroundColor=none;" parent="1" source="gwWRFYkYZBfwvR-6La1C-64" target="ysc81xDm8aQt-sF4rHXD-19" edge="1">
          <mxGeometry relative="1" as="geometry" />
        </mxCell>
        <mxCell id="gwWRFYkYZBfwvR-6La1C-64" value="Address" style="ellipse;whiteSpace=wrap;html=1;align=center;strokeColor=#457B9D;fontColor=#1D3557;fillColor=#A8DADC;labelBackgroundColor=none;" parent="1" vertex="1">
          <mxGeometry x="380" y="60" width="100" height="40" as="geometry" />
        </mxCell>
        <mxCell id="gwWRFYkYZBfwvR-6La1C-89" style="edgeStyle=orthogonalEdgeStyle;orthogonalLoop=1;jettySize=auto;html=1;exitX=0;exitY=0.5;exitDx=0;exitDy=0;entryX=0.5;entryY=1;entryDx=0;entryDy=0;strokeColor=#457B9D;fontColor=default;fillColor=#A8DADC;rounded=0;curved=1;endArrow=none;startFill=0;labelBackgroundColor=none;" parent="1" source="gwWRFYkYZBfwvR-6La1C-65" target="ysc81xDm8aQt-sF4rHXD-19" edge="1">
          <mxGeometry relative="1" as="geometry" />
        </mxCell>
        <mxCell id="gwWRFYkYZBfwvR-6La1C-65" value="ContactInfo" style="ellipse;whiteSpace=wrap;html=1;align=center;strokeColor=#457B9D;fontColor=#1D3557;fillColor=#A8DADC;labelBackgroundColor=none;" parent="1" vertex="1">
          <mxGeometry x="380" y="110" width="100" height="40" as="geometry" />
        </mxCell>
        <mxCell id="gwWRFYkYZBfwvR-6La1C-87" style="edgeStyle=orthogonalEdgeStyle;orthogonalLoop=1;jettySize=auto;html=1;exitX=0;exitY=0;exitDx=0;exitDy=0;entryX=0.5;entryY=1;entryDx=0;entryDy=0;strokeColor=#457B9D;fontColor=default;fillColor=#A8DADC;rounded=0;curved=1;endArrow=none;startFill=0;labelBackgroundColor=none;" parent="1" source="gwWRFYkYZBfwvR-6La1C-66" target="ysc81xDm8aQt-sF4rHXD-19" edge="1">
          <mxGeometry relative="1" as="geometry" />
        </mxCell>
        <mxCell id="gwWRFYkYZBfwvR-6La1C-66" value="Emergency &lt;br/&gt;Contact" style="ellipse;whiteSpace=wrap;html=1;align=center;strokeColor=#457B9D;fontColor=#1D3557;fillColor=#A8DADC;labelBackgroundColor=none;" parent="1" vertex="1">
          <mxGeometry x="358" y="154" width="100" height="40" as="geometry" />
        </mxCell>
        <mxCell id="gwWRFYkYZBfwvR-6La1C-74" style="edgeStyle=orthogonalEdgeStyle;orthogonalLoop=1;jettySize=auto;html=1;exitX=0.5;exitY=0;exitDx=0;exitDy=0;entryX=0.25;entryY=1;entryDx=0;entryDy=0;strokeColor=#457B9D;fontColor=default;fillColor=#A8DADC;endArrow=none;startFill=0;rounded=0;curved=1;labelBackgroundColor=none;" parent="1" source="gwWRFYkYZBfwvR-6La1C-73" target="ysc81xDm8aQt-sF4rHXD-20" edge="1">
          <mxGeometry relative="1" as="geometry" />
        </mxCell>
        <mxCell id="gwWRFYkYZBfwvR-6La1C-73" value="InstructorID" style="ellipse;whiteSpace=wrap;html=1;align=center;fontStyle=4;strokeColor=#457B9D;fontColor=#1D3557;fillColor=#A8DADC;labelBackgroundColor=none;" parent="1" vertex="1">
          <mxGeometry x="-100" y="460" width="100" height="40" as="geometry" />
        </mxCell>
        <mxCell id="gwWRFYkYZBfwvR-6La1C-82" style="edgeStyle=orthogonalEdgeStyle;orthogonalLoop=1;jettySize=auto;html=1;exitX=0.5;exitY=0;exitDx=0;exitDy=0;entryX=0.5;entryY=1;entryDx=0;entryDy=0;strokeColor=#457B9D;fontColor=default;fillColor=#A8DADC;endArrow=none;startFill=0;rounded=0;curved=1;labelBackgroundColor=none;" parent="1" source="gwWRFYkYZBfwvR-6La1C-75" target="ysc81xDm8aQt-sF4rHXD-20" edge="1">
          <mxGeometry relative="1" as="geometry" />
        </mxCell>
        <mxCell id="gwWRFYkYZBfwvR-6La1C-75" value="Qualifications" style="ellipse;whiteSpace=wrap;html=1;align=center;strokeColor=#457B9D;fontColor=#1D3557;fillColor=#A8DADC;labelBackgroundColor=none;" parent="1" vertex="1">
          <mxGeometry x="190" y="390" width="100" height="40" as="geometry" />
        </mxCell>
        <mxCell id="gwWRFYkYZBfwvR-6La1C-83" value="" style="edgeStyle=orthogonalEdgeStyle;orthogonalLoop=1;jettySize=auto;html=1;strokeColor=#457B9D;fontColor=default;fillColor=#A8DADC;endArrow=none;startFill=0;rounded=0;curved=1;labelBackgroundColor=none;" parent="1" source="gwWRFYkYZBfwvR-6La1C-76" target="ysc81xDm8aQt-sF4rHXD-20" edge="1">
          <mxGeometry relative="1" as="geometry" />
        </mxCell>
        <mxCell id="gwWRFYkYZBfwvR-6La1C-76" value="ContactInfo" style="ellipse;whiteSpace=wrap;html=1;align=center;strokeColor=#457B9D;fontColor=#1D3557;fillColor=#A8DADC;labelBackgroundColor=none;" parent="1" vertex="1">
          <mxGeometry x="230" y="320" width="100" height="40" as="geometry" />
        </mxCell>
        <mxCell id="gwWRFYkYZBfwvR-6La1C-81" value="" style="edgeStyle=orthogonalEdgeStyle;orthogonalLoop=1;jettySize=auto;html=1;strokeColor=#457B9D;fontColor=default;fillColor=#A8DADC;endArrow=none;startFill=0;rounded=0;curved=1;labelBackgroundColor=none;" parent="1" source="gwWRFYkYZBfwvR-6La1C-77" target="ysc81xDm8aQt-sF4rHXD-20" edge="1">
          <mxGeometry relative="1" as="geometry" />
        </mxCell>
        <mxCell id="gwWRFYkYZBfwvR-6La1C-77" value="Address" style="ellipse;whiteSpace=wrap;html=1;align=center;strokeColor=#457B9D;fontColor=#1D3557;fillColor=#A8DADC;labelBackgroundColor=none;" parent="1" vertex="1">
          <mxGeometry x="110" y="430" width="100" height="40" as="geometry" />
        </mxCell>
        <mxCell id="gwWRFYkYZBfwvR-6La1C-79" value="" style="edgeStyle=orthogonalEdgeStyle;orthogonalLoop=1;jettySize=auto;html=1;strokeColor=#457B9D;fontColor=default;fillColor=#A8DADC;endArrow=none;startFill=0;rounded=0;curved=1;labelBackgroundColor=none;" parent="1" source="gwWRFYkYZBfwvR-6La1C-78" target="ysc81xDm8aQt-sF4rHXD-20" edge="1">
          <mxGeometry relative="1" as="geometry" />
        </mxCell>
        <mxCell id="gwWRFYkYZBfwvR-6La1C-78" value="Name" style="ellipse;whiteSpace=wrap;html=1;align=center;strokeColor=#457B9D;fontColor=#1D3557;fillColor=#A8DADC;labelBackgroundColor=none;" parent="1" vertex="1">
          <mxGeometry x="20" y="460" width="100" height="40" as="geometry" />
        </mxCell>
        <mxCell id="KXVJTQez2bZqWLIUOeJD-1" value="BeltID" style="ellipse;whiteSpace=wrap;html=1;align=center;fontStyle=4;labelBackgroundColor=none;fillColor=#A8DADC;strokeColor=#457B9D;fontColor=#1D3557;" vertex="1" parent="1">
          <mxGeometry x="-460" y="-50" width="100" height="40" as="geometry" />
        </mxCell>
        <mxCell id="KXVJTQez2bZqWLIUOeJD-3" value="Rank" style="ellipse;whiteSpace=wrap;html=1;align=center;strokeColor=#457B9D;fontColor=#1D3557;fillColor=#A8DADC;" vertex="1" parent="1">
          <mxGeometry x="-360" y="-60" width="100" height="40" as="geometry" />
        </mxCell>
        <mxCell id="KXVJTQez2bZqWLIUOeJD-5" value="Fee" style="ellipse;whiteSpace=wrap;html=1;align=center;strokeColor=#457B9D;fontColor=#1D3557;fillColor=#A8DADC;" vertex="1" parent="1">
          <mxGeometry x="-276" y="-26" width="100" height="40" as="geometry" />
        </mxCell>
        <mxCell id="KXVJTQez2bZqWLIUOeJD-10" value="" style="edgeStyle=orthogonalEdgeStyle;rounded=0;orthogonalLoop=1;jettySize=auto;html=1;strokeColor=#457B9D;fontColor=#1D3557;fillColor=#A8DADC;endArrow=none;endFill=0;startFill=0;curved=1;exitX=0.25;exitY=1;exitDx=0;exitDy=0;" edge="1" parent="1" target="KXVJTQez2bZqWLIUOeJD-11" source="nUIHT7rJCE-27V1YkCyQ-4">
          <mxGeometry relative="1" as="geometry">
            <mxPoint x="-360.06" y="385.3500000000005" as="sourcePoint" />
          </mxGeometry>
        </mxCell>
        <mxCell id="KXVJTQez2bZqWLIUOeJD-11" value="TestID" style="ellipse;whiteSpace=wrap;html=1;align=center;fontStyle=4;labelBackgroundColor=none;fillColor=#A8DADC;strokeColor=#457B9D;fontColor=#1D3557;" vertex="1" parent="1">
          <mxGeometry x="-525" y="400.00000000000006" width="100" height="40" as="geometry" />
        </mxCell>
        <mxCell id="KXVJTQez2bZqWLIUOeJD-12" value="Date" style="ellipse;whiteSpace=wrap;html=1;align=center;strokeColor=#457B9D;fontColor=#1D3557;fillColor=#A8DADC;" vertex="1" parent="1">
          <mxGeometry x="-423" y="416" width="100" height="40" as="geometry" />
        </mxCell>
        <mxCell id="KXVJTQez2bZqWLIUOeJD-14" value="Result" style="ellipse;whiteSpace=wrap;html=1;align=center;strokeColor=#457B9D;fontColor=#1D3557;fillColor=#A8DADC;" vertex="1" parent="1">
          <mxGeometry x="-176" y="250" width="100" height="40" as="geometry" />
        </mxCell>
        <mxCell id="KXVJTQez2bZqWLIUOeJD-16" value="ParticpateID" style="ellipse;whiteSpace=wrap;html=1;align=center;fontStyle=4;labelBackgroundColor=none;fillColor=#A8DADC;strokeColor=#457B9D;fontColor=#1D3557;" vertex="1" parent="1">
          <mxGeometry x="-276" y="240" width="100" height="40" as="geometry" />
        </mxCell>
        <mxCell id="KXVJTQez2bZqWLIUOeJD-19" style="edgeStyle=orthogonalEdgeStyle;rounded=0;orthogonalLoop=1;jettySize=auto;html=1;exitX=0.5;exitY=1;exitDx=0;exitDy=0;entryX=0.5;entryY=0;entryDx=0;entryDy=0;strokeColor=#457B9D;fontColor=#1D3557;fillColor=#A8DADC;curved=1;endArrow=none;startFill=0;" edge="1" parent="1" source="KXVJTQez2bZqWLIUOeJD-18" target="nUIHT7rJCE-27V1YkCyQ-6">
          <mxGeometry relative="1" as="geometry" />
        </mxCell>
        <mxCell id="KXVJTQez2bZqWLIUOeJD-18" value="SubscriptionID" style="ellipse;whiteSpace=wrap;html=1;align=center;fontStyle=4;strokeColor=#457B9D;fontColor=#1D3557;fillColor=#A8DADC;" vertex="1" parent="1">
          <mxGeometry x="445" y="-288" width="100" height="40" as="geometry" />
        </mxCell>
        <mxCell id="KXVJTQez2bZqWLIUOeJD-24" style="edgeStyle=orthogonalEdgeStyle;rounded=0;orthogonalLoop=1;jettySize=auto;html=1;exitX=0.5;exitY=1;exitDx=0;exitDy=0;entryX=0.5;entryY=0;entryDx=0;entryDy=0;strokeColor=#457B9D;fontColor=#1D3557;fillColor=#A8DADC;curved=1;endArrow=none;startFill=0;" edge="1" parent="1" source="KXVJTQez2bZqWLIUOeJD-20" target="nUIHT7rJCE-27V1YkCyQ-6">
          <mxGeometry relative="1" as="geometry" />
        </mxCell>
        <mxCell id="KXVJTQez2bZqWLIUOeJD-20" value="StartDate" style="ellipse;whiteSpace=wrap;html=1;align=center;strokeColor=#457B9D;fontColor=#1D3557;fillColor=#A8DADC;" vertex="1" parent="1">
          <mxGeometry x="545" y="-288" width="100" height="40" as="geometry" />
        </mxCell>
        <mxCell id="KXVJTQez2bZqWLIUOeJD-28" style="edgeStyle=orthogonalEdgeStyle;rounded=0;orthogonalLoop=1;jettySize=auto;html=1;exitX=0.5;exitY=1;exitDx=0;exitDy=0;strokeColor=#457B9D;fontColor=#1D3557;fillColor=#A8DADC;entryX=0.5;entryY=0;entryDx=0;entryDy=0;curved=1;endArrow=none;startFill=0;" edge="1" parent="1" source="KXVJTQez2bZqWLIUOeJD-22" target="nUIHT7rJCE-27V1YkCyQ-6">
          <mxGeometry relative="1" as="geometry">
            <mxPoint x="415" y="-168" as="targetPoint" />
            <Array as="points">
              <mxPoint x="705" y="-188" />
              <mxPoint x="378" y="-188" />
            </Array>
          </mxGeometry>
        </mxCell>
        <mxCell id="KXVJTQez2bZqWLIUOeJD-22" value="EndDate" style="ellipse;whiteSpace=wrap;html=1;align=center;strokeColor=#457B9D;fontColor=#1D3557;fillColor=#A8DADC;" vertex="1" parent="1">
          <mxGeometry x="655" y="-278" width="100" height="40" as="geometry" />
        </mxCell>
        <mxCell id="KXVJTQez2bZqWLIUOeJD-39" style="edgeStyle=orthogonalEdgeStyle;rounded=0;orthogonalLoop=1;jettySize=auto;html=1;exitX=1;exitY=0;exitDx=0;exitDy=0;entryX=0.5;entryY=1;entryDx=0;entryDy=0;strokeColor=#457B9D;fontColor=#1D3557;fillColor=#A8DADC;endArrow=none;startFill=0;curved=1;" edge="1" parent="1" source="KXVJTQez2bZqWLIUOeJD-29" target="nUIHT7rJCE-27V1YkCyQ-2">
          <mxGeometry relative="1" as="geometry" />
        </mxCell>
        <mxCell id="KXVJTQez2bZqWLIUOeJD-29" value="MemberShipID" style="ellipse;whiteSpace=wrap;html=1;align=center;fontStyle=4;strokeColor=#457B9D;fontColor=#1D3557;fillColor=#A8DADC;" vertex="1" parent="1">
          <mxGeometry x="607" y="121" width="100" height="40" as="geometry" />
        </mxCell>
        <mxCell id="KXVJTQez2bZqWLIUOeJD-38" style="edgeStyle=orthogonalEdgeStyle;rounded=0;orthogonalLoop=1;jettySize=auto;html=1;exitX=0;exitY=0.5;exitDx=0;exitDy=0;entryX=0.5;entryY=1;entryDx=0;entryDy=0;strokeColor=#457B9D;fontColor=#1D3557;fillColor=#A8DADC;endArrow=none;startFill=0;curved=1;" edge="1" parent="1" source="KXVJTQez2bZqWLIUOeJD-33" target="nUIHT7rJCE-27V1YkCyQ-2">
          <mxGeometry relative="1" as="geometry" />
        </mxCell>
        <mxCell id="KXVJTQez2bZqWLIUOeJD-33" value="Status" style="ellipse;whiteSpace=wrap;html=1;align=center;strokeColor=#457B9D;fontColor=#1D3557;fillColor=#A8DADC;" vertex="1" parent="1">
          <mxGeometry x="897" y="81" width="100" height="40" as="geometry" />
        </mxCell>
        <mxCell id="KXVJTQez2bZqWLIUOeJD-37" style="edgeStyle=orthogonalEdgeStyle;rounded=0;orthogonalLoop=1;jettySize=auto;html=1;exitX=0.5;exitY=0;exitDx=0;exitDy=0;entryX=0.5;entryY=1;entryDx=0;entryDy=0;strokeColor=#457B9D;fontColor=#1D3557;fillColor=#A8DADC;endArrow=none;startFill=0;curved=1;" edge="1" parent="1" source="KXVJTQez2bZqWLIUOeJD-34" target="nUIHT7rJCE-27V1YkCyQ-2">
          <mxGeometry relative="1" as="geometry" />
        </mxCell>
        <mxCell id="KXVJTQez2bZqWLIUOeJD-34" value="EndDate" style="ellipse;whiteSpace=wrap;html=1;align=center;strokeColor=#457B9D;fontColor=#1D3557;fillColor=#A8DADC;" vertex="1" parent="1">
          <mxGeometry x="827" y="137" width="100" height="40" as="geometry" />
        </mxCell>
        <mxCell id="KXVJTQez2bZqWLIUOeJD-36" value="" style="edgeStyle=orthogonalEdgeStyle;rounded=0;orthogonalLoop=1;jettySize=auto;html=1;strokeColor=#457B9D;fontColor=#1D3557;fillColor=#A8DADC;endArrow=none;startFill=0;curved=1;" edge="1" parent="1" source="KXVJTQez2bZqWLIUOeJD-35" target="nUIHT7rJCE-27V1YkCyQ-2">
          <mxGeometry relative="1" as="geometry" />
        </mxCell>
        <mxCell id="KXVJTQez2bZqWLIUOeJD-35" value="StartDate" style="ellipse;whiteSpace=wrap;html=1;align=center;strokeColor=#457B9D;fontColor=#1D3557;fillColor=#A8DADC;" vertex="1" parent="1">
          <mxGeometry x="717" y="151" width="100" height="40" as="geometry" />
        </mxCell>
        <mxCell id="KXVJTQez2bZqWLIUOeJD-44" value="" style="edgeStyle=entityRelationEdgeStyle;fontSize=12;html=1;endArrow=ERmandOne;startArrow=none;rounded=0;strokeColor=#457B9D;fontColor=#1D3557;fillColor=#A8DADC;entryX=0;entryY=0.5;entryDx=0;entryDy=0;exitX=1;exitY=0.5;exitDx=0;exitDy=0;startFill=0;" edge="1" parent="1" source="KXVJTQez2bZqWLIUOeJD-45" target="nUIHT7rJCE-27V1YkCyQ-2">
          <mxGeometry width="100" height="100" relative="1" as="geometry">
            <mxPoint x="450" y="250" as="sourcePoint" />
            <mxPoint x="550" y="150" as="targetPoint" />
          </mxGeometry>
        </mxCell>
        <mxCell id="KXVJTQez2bZqWLIUOeJD-48" value="" style="edgeStyle=entityRelationEdgeStyle;fontSize=12;html=1;endArrow=none;startArrow=ERmandOne;rounded=0;strokeColor=#457B9D;fontColor=#1D3557;fillColor=#A8DADC;entryX=0;entryY=0.5;entryDx=0;entryDy=0;exitX=1;exitY=0.25;exitDx=0;exitDy=0;startFill=0;" edge="1" parent="1" source="ysc81xDm8aQt-sF4rHXD-19" target="KXVJTQez2bZqWLIUOeJD-45">
          <mxGeometry width="100" height="100" relative="1" as="geometry">
            <mxPoint x="165" y="50" as="sourcePoint" />
            <mxPoint x="720" y="44" as="targetPoint" />
          </mxGeometry>
        </mxCell>
        <mxCell id="KXVJTQez2bZqWLIUOeJD-45" value="Have" style="shape=rhombus;perimeter=rhombusPerimeter;whiteSpace=wrap;html=1;align=center;strokeColor=#457B9D;fontColor=#1D3557;fillColor=#A8DADC;" vertex="1" parent="1">
          <mxGeometry x="480" y="20" width="120" height="60" as="geometry" />
        </mxCell>
        <mxCell id="KXVJTQez2bZqWLIUOeJD-55" style="edgeStyle=orthogonalEdgeStyle;rounded=0;orthogonalLoop=1;jettySize=auto;html=1;exitX=1;exitY=0.5;exitDx=0;exitDy=0;entryX=0.5;entryY=0;entryDx=0;entryDy=0;strokeColor=#457B9D;fontColor=#1D3557;fillColor=#A8DADC;endArrow=none;startFill=0;curved=1;" edge="1" parent="1" source="KXVJTQez2bZqWLIUOeJD-49" target="nUIHT7rJCE-27V1YkCyQ-5">
          <mxGeometry relative="1" as="geometry" />
        </mxCell>
        <mxCell id="KXVJTQez2bZqWLIUOeJD-49" value="Date" style="ellipse;whiteSpace=wrap;html=1;align=center;strokeColor=#457B9D;fontColor=#1D3557;fillColor=#A8DADC;" vertex="1" parent="1">
          <mxGeometry x="-120" y="-268" width="100" height="40" as="geometry" />
        </mxCell>
        <mxCell id="KXVJTQez2bZqWLIUOeJD-56" style="edgeStyle=orthogonalEdgeStyle;rounded=0;orthogonalLoop=1;jettySize=auto;html=1;exitX=1;exitY=0.5;exitDx=0;exitDy=0;entryX=0.5;entryY=0;entryDx=0;entryDy=0;strokeColor=#457B9D;fontColor=#1D3557;fillColor=#A8DADC;endArrow=none;startFill=0;curved=1;" edge="1" parent="1" source="KXVJTQez2bZqWLIUOeJD-50" target="nUIHT7rJCE-27V1YkCyQ-5">
          <mxGeometry relative="1" as="geometry" />
        </mxCell>
        <mxCell id="KXVJTQez2bZqWLIUOeJD-50" value="PaymentID" style="ellipse;whiteSpace=wrap;html=1;align=center;fontStyle=4;strokeColor=#457B9D;fontColor=#1D3557;fillColor=#A8DADC;" vertex="1" parent="1">
          <mxGeometry x="-150" y="-220" width="100" height="40" as="geometry" />
        </mxCell>
        <mxCell id="KXVJTQez2bZqWLIUOeJD-53" style="edgeStyle=orthogonalEdgeStyle;rounded=0;orthogonalLoop=1;jettySize=auto;html=1;exitX=1;exitY=0.5;exitDx=0;exitDy=0;strokeColor=#457B9D;fontColor=#1D3557;fillColor=#A8DADC;endArrow=none;startFill=0;curved=1;" edge="1" parent="1" source="KXVJTQez2bZqWLIUOeJD-51" target="nUIHT7rJCE-27V1YkCyQ-5">
          <mxGeometry relative="1" as="geometry" />
        </mxCell>
        <mxCell id="KXVJTQez2bZqWLIUOeJD-51" value="Amount" style="ellipse;whiteSpace=wrap;html=1;align=center;strokeColor=#457B9D;fontColor=#1D3557;fillColor=#A8DADC;" vertex="1" parent="1">
          <mxGeometry x="10" y="-358" width="100" height="40" as="geometry" />
        </mxCell>
        <mxCell id="KXVJTQez2bZqWLIUOeJD-54" style="edgeStyle=orthogonalEdgeStyle;rounded=0;orthogonalLoop=1;jettySize=auto;html=1;exitX=1;exitY=0.5;exitDx=0;exitDy=0;strokeColor=#457B9D;fontColor=#1D3557;fillColor=#A8DADC;entryX=0.5;entryY=0;entryDx=0;entryDy=0;endArrow=none;startFill=0;curved=1;" edge="1" parent="1" source="KXVJTQez2bZqWLIUOeJD-52" target="nUIHT7rJCE-27V1YkCyQ-5">
          <mxGeometry relative="1" as="geometry">
            <mxPoint x="80" y="-200" as="targetPoint" />
          </mxGeometry>
        </mxCell>
        <mxCell id="KXVJTQez2bZqWLIUOeJD-52" value="Satus" style="ellipse;whiteSpace=wrap;html=1;align=center;strokeColor=#457B9D;fontColor=#1D3557;fillColor=#A8DADC;" vertex="1" parent="1">
          <mxGeometry x="-70" y="-318" width="100" height="40" as="geometry" />
        </mxCell>
      </root>
    </mxGraphModel>
  </diagram>
</mxfile>
